<svg width="138" height="46" viewBox="0 0 138 46" fill="none" xmlns="http://www.w3.org/2000/svg">
<rect y="0.655762" width="44.6883" height="44.6883" rx="22.3442" fill="#2F65D5"/>
<path d="M24.6556 19.7967V23.6204C24.6556 23.8153 24.5517 23.9954 24.3829 24.0928L11.661 31.435C11.4792 31.5399 11.252 31.4087 11.252 31.1988V26.4847L23.8405 19.3226C24.2041 19.1158 24.6556 19.3784 24.6556 19.7967Z" fill="url(#paint0_linear_215_289)"/>
<path d="M28.9596 26.5216L20.1685 31.5964V36.871L33.2994 29.2377C33.3834 29.1889 33.435 29.0991 33.435 29.0019V18.433C33.435 18.0126 32.9795 17.7502 32.6159 17.9612L29.2312 19.9255C29.0631 20.0231 28.9596 20.2028 28.9596 20.3972V26.5216Z" fill="url(#paint1_linear_215_289)"/>
<path d="M32.6191 9.59415L29.245 11.5268C29.0754 11.624 28.9707 11.8046 28.9707 12.0001V15.9523C28.9707 16.368 29.4172 16.6309 29.7807 16.4292L33.1549 14.5569C33.3281 14.4608 33.4356 14.2782 33.4356 14.08V10.0674C33.4356 9.64839 32.9827 9.38588 32.6191 9.59415Z" fill="#F0F0F0"/>
<path d="M20.1695 31.5967L11.252 26.4878V31.5122C11.252 31.6092 11.3035 31.6989 11.3872 31.7477L20.1695 36.8718V31.5967Z" fill="white"/>
<path d="M58.2012 33.5033C62.2788 33.5033 64.1631 31.0629 64.5647 28.4681H64.8118V33.1944H69.1365V17.7181H64.5029V25.5644C64.5029 28.1901 63.4217 29.3639 60.3944 29.3639C57.4598 29.3639 56.4095 28.3136 56.4095 25.8115V17.7181H51.7759V27.356C51.7759 30.8158 53.8456 33.5033 58.2012 33.5033Z" fill="#2F65D5"/>
<path d="M76.7571 16.1427V12.4976H72.1235V16.1427H76.7571ZM76.7571 33.1944V17.7181H72.1235V33.1944H76.7571Z" fill="#2F65D5"/>
<path d="M86.7199 33.5033C90.2723 33.5033 92.3111 31.9588 92.8981 28.9006H93.1452V33.1944H97.4699V12.4976H92.8363V21.8266H92.5583C92.0331 19.2318 90.1488 17.4092 86.4728 17.4092C81.87 17.4092 79.2443 20.5292 79.2443 25.4717C79.2443 30.3524 81.9009 33.5033 86.7199 33.5033ZM83.9397 25.4717C83.9397 22.6297 85.3298 21.6412 88.2953 21.6412C91.2608 21.6412 92.8363 22.6297 92.8363 25.3172V25.5644C92.8363 28.2519 91.2299 29.2713 88.2953 29.2713C85.3298 29.2713 83.9397 28.2828 83.9397 25.4717Z" fill="#2F65D5"/>
<path d="M108.756 33.5033C113.668 33.5033 116.942 31.1556 116.942 27.7885V27.4487H112.309V27.7576C112.309 29.0859 111.351 29.7964 108.602 29.7964C105.606 29.7964 104.493 28.777 104.37 26.3984H116.973C117.035 25.8733 117.097 25.4717 117.097 24.9157C117.097 20.0658 113.73 17.4092 108.664 17.4092C103.567 17.4092 100.076 20.5292 100.076 25.4717C100.076 30.9703 103.598 33.5033 108.756 33.5033ZM108.571 21.0234C111.289 21.0234 112.525 21.9193 112.649 23.958H104.432C104.648 21.9501 105.822 21.0234 108.571 21.0234Z" fill="#2F65D5"/>
<path d="M123.912 33.1944L127.897 28.0047H128.144L132.252 33.1944H137.905L131.727 25.5644V25.2864L137.905 17.7181H132.314L128.329 22.9386H128.082L123.973 17.7181H118.32L124.499 25.379V25.6262L118.32 33.1944H123.912Z" fill="#2F65D5"/>
<defs>
<linearGradient id="paint0_linear_215_289" x1="17.9538" y1="18.8589" x2="10.3554" y2="30.2167" gradientUnits="userSpaceOnUse">
<stop stop-color="#EAEAEA"/>
<stop offset="1" stop-color="#C2C0CE"/>
</linearGradient>
<linearGradient id="paint1_linear_215_289" x1="26.8017" y1="17.4858" x2="14.3669" y2="29.6448" gradientUnits="userSpaceOnUse">
<stop stop-color="#EAEAEA"/>
<stop offset="1" stop-color="#DBDBDB"/>
</linearGradient>
</defs>
</svg>
